<svg width="88" height="40" viewBox="0 0 88 40" fill="none" xmlns="http://www.w3.org/2000/svg">
<rect x="0.5" y="0.5" width="87" height="39" rx="7.5" fill="white"/>
<rect x="0.5" y="0.5" width="87" height="39" rx="7.5" stroke="#D9D9D9"/>
<path d="M24.7341 27.9153C24.5472 27.9153 24.3853 27.8526 24.2486 27.727C24.1118 27.6015 24.0295 27.4452 24.0018 27.2583L23.7598 25.3769C23.5365 25.3021 23.3076 25.1974 23.0731 25.0628C22.8386 24.9281 22.6289 24.7839 22.4441 24.6301L20.7037 25.364C20.5253 25.442 20.3482 25.4511 20.1724 25.3913C19.9967 25.3314 19.8586 25.2193 19.7582 25.0547L18.505 22.8721C18.4099 22.7075 18.3805 22.5318 18.4168 22.3448C18.4532 22.1579 18.5466 22.0072 18.6973 21.8929L20.2037 20.7535C20.1845 20.6296 20.1708 20.5051 20.1628 20.3801C20.1548 20.2551 20.1508 20.1306 20.1508 20.0067C20.1508 19.8881 20.1548 19.7676 20.1628 19.6453C20.1708 19.523 20.1845 19.3892 20.2037 19.2439L18.6973 18.1044C18.5466 17.9901 18.4518 17.8395 18.4128 17.6525C18.3738 17.4656 18.4046 17.2898 18.505 17.1253L19.7582 14.9587C19.8586 14.7941 19.9953 14.6819 20.1684 14.6221C20.3415 14.5623 20.5172 14.5714 20.6957 14.6494L22.436 15.3753C22.6369 15.2161 22.8514 15.0706 23.0795 14.9386C23.3076 14.8067 23.5317 14.7006 23.7518 14.6205L24.0018 12.7391C24.0295 12.5521 24.1118 12.3959 24.2486 12.2703C24.3853 12.1448 24.5472 12.082 24.7341 12.082H27.2581C27.4451 12.082 27.6083 12.1448 27.7477 12.2703C27.8871 12.3959 27.9707 12.5521 27.9985 12.7391L28.2405 14.6285C28.4905 14.7193 28.7167 14.8254 28.9192 14.9466C29.1217 15.0679 29.326 15.2108 29.5322 15.3753L31.3046 14.6494C31.483 14.5714 31.6588 14.5609 31.8318 14.6181C32.0049 14.6753 32.1417 14.7861 32.2421 14.9506L33.4953 17.1253C33.5957 17.2898 33.6264 17.4656 33.5874 17.6525C33.5484 17.8395 33.4536 17.9901 33.303 18.1044L31.7645 19.2679C31.7945 19.4025 31.8107 19.5283 31.8134 19.6453C31.8161 19.7623 31.8174 19.8801 31.8174 19.9987C31.8174 20.1119 31.8147 20.227 31.8094 20.344C31.8041 20.461 31.7848 20.5948 31.7517 20.7455L33.2741 21.8929C33.4248 22.0072 33.5196 22.1579 33.5586 22.3448C33.5976 22.5318 33.5669 22.7075 33.4665 22.8721L32.2133 25.0419C32.1128 25.2064 31.9726 25.3194 31.7926 25.3808C31.6126 25.4423 31.4333 25.434 31.2549 25.356L29.5322 24.622C29.326 24.7866 29.1155 24.9321 28.9008 25.0587C28.686 25.1854 28.4659 25.2887 28.2405 25.3688L27.9985 27.2583C27.9707 27.4452 27.8871 27.6015 27.7477 27.727C27.6083 27.8526 27.4451 27.9153 27.2581 27.9153H24.7341ZM25.1668 26.6653H26.8046L27.1043 24.433C27.5295 24.3219 27.9181 24.164 28.2702 23.9594C28.6222 23.7548 28.9617 23.4917 29.2886 23.1702L31.3591 24.0403L32.1796 22.6237L30.3719 21.2615C30.4414 21.0457 30.4887 20.8342 30.5138 20.6269C30.5389 20.4196 30.5514 20.2102 30.5514 19.9987C30.5514 19.7818 30.5389 19.5724 30.5138 19.3705C30.4887 19.1686 30.4414 18.9624 30.3719 18.7519L32.1957 17.3737L31.3751 15.957L29.2806 16.84C29.0017 16.5419 28.6676 16.2786 28.2782 16.05C27.8888 15.8213 27.4948 15.6595 27.0963 15.5644L26.8335 13.332H25.1796L24.904 15.5564C24.4788 15.6568 24.0861 15.8106 23.7261 16.0179C23.3661 16.2252 23.0226 16.4923 22.6957 16.8192L20.6251 15.957L19.8046 17.3737L21.6043 18.715C21.5349 18.9127 21.4863 19.1183 21.4585 19.332C21.4307 19.5457 21.4168 19.7706 21.4168 20.0067C21.4168 20.2236 21.4307 20.4362 21.4585 20.6445C21.4863 20.8528 21.5322 21.0585 21.5963 21.2615L19.8046 22.6237L20.6251 24.0403L22.6876 23.1653C23.0039 23.4901 23.342 23.7562 23.7021 23.9634C24.0621 24.1707 24.4601 24.3299 24.896 24.441L25.1668 26.6653ZM26.0097 22.4987C26.7031 22.4987 27.2931 22.2553 27.7798 21.7687C28.2664 21.282 28.5097 20.692 28.5097 19.9987C28.5097 19.3053 28.2664 18.7153 27.7798 18.2287C27.2931 17.742 26.7031 17.4987 26.0097 17.4987C25.3078 17.4987 24.7157 17.742 24.2333 18.2287C23.751 18.7153 23.5098 19.3053 23.5098 19.9987C23.5098 20.692 23.751 21.282 24.2333 21.7687C24.7157 22.2553 25.3078 22.4987 26.0097 22.4987Z" fill="#787486"/>
<path d="M52.3125 14.3906V15.1719C52.2969 16.1094 52.2969 17.5 51.9531 19.3125L50.4844 19.1719C50.7891 17.625 50.8359 16.4922 50.8516 15.6094H45.25V14.3906H52.3125ZM44.4062 20.5156C45.2656 20.5156 46.2422 20.5078 47.2656 20.4844V17.5312H48.7344V20.4375C50.2344 20.375 51.7812 20.2656 53.1875 20.0625L53.2812 21.1406C50.3594 21.6562 47.0156 21.7109 44.5469 21.7188L44.4062 20.5156ZM46.5312 27.0312V22.8906H48.0156V25.8281H56.0469V27.0312H46.5312ZM54.0781 23.8438V13.3281H55.5938V17.7812H57.5156V19.0312H55.5938V23.8438H54.0781ZM69.9688 13.3281V27.3594H68.4844V13.3281H69.9688ZM59.125 15.7969V14.5938H65.6875V19.7031H60.6562V22.7656C62.9297 22.7578 64.9062 22.6484 67.25 22.2656L67.3906 23.4844C64.9141 23.8984 62.8047 23.9922 60.3281 24H59.1406V18.5156H64.1719V15.7969H59.125Z" fill="#787486"/>
</svg>
