<svg width="16" height="16" viewBox="0 0 16 16" fill="none" xmlns="http://www.w3.org/2000/svg">
<path d="M7.37533 8.69267V11.401C7.37533 11.5784 7.43515 11.7269 7.5548 11.8465C7.67446 11.9662 7.82296 12.026 8.0003 12.026C8.17765 12.026 8.32615 11.9662 8.4458 11.8465C8.56546 11.7269 8.62528 11.5784 8.62528 11.401V8.69267H11.3336C11.511 8.69267 11.6595 8.63284 11.7791 8.51319C11.8988 8.39354 11.9586 8.24504 11.9586 8.06769C11.9586 7.89034 11.8988 7.74184 11.7791 7.62219C11.6595 7.50254 11.511 7.44271 11.3336 7.44271H8.62528V4.73435C8.62528 4.55701 8.56546 4.40851 8.4458 4.28886C8.32615 4.1692 8.17765 4.10938 8.0003 4.10938C7.82296 4.10938 7.67446 4.1692 7.5548 4.28886C7.43515 4.40851 7.37533 4.55701 7.37533 4.73435V7.44271H4.66697C4.48962 7.44271 4.34112 7.50254 4.22147 7.62219C4.10182 7.74184 4.04199 7.89034 4.04199 8.06769C4.04199 8.24504 4.10182 8.39354 4.22147 8.51319C4.34112 8.63284 4.48962 8.69267 4.66697 8.69267H7.37533ZM2.42341 15.151C2.00246 15.151 1.64616 15.0052 1.35449 14.7135C1.06283 14.4218 0.916992 14.0655 0.916992 13.6446V2.49079C0.916992 2.06985 1.06283 1.71354 1.35449 1.42188C1.64616 1.13021 2.00246 0.984375 2.42341 0.984375H13.5772C13.9981 0.984375 14.3545 1.13021 14.6461 1.42188C14.9378 1.71354 15.0836 2.06985 15.0836 2.49079V13.6446C15.0836 14.0655 14.9378 14.4218 14.6461 14.7135C14.3545 15.0052 13.9981 15.151 13.5772 15.151H2.42341ZM2.42341 13.901H13.5772C13.6413 13.901 13.7001 13.8743 13.7535 13.8209C13.8069 13.7675 13.8336 13.7087 13.8336 13.6446V2.49079C13.8336 2.42668 13.8069 2.36791 13.7535 2.31448C13.7001 2.26106 13.6413 2.23435 13.5772 2.23435H2.42341C2.3593 2.23435 2.30053 2.26106 2.2471 2.31448C2.19368 2.36791 2.16697 2.42668 2.16697 2.49079V13.6446C2.16697 13.7087 2.19368 13.7675 2.2471 13.8209C2.30053 13.8743 2.3593 13.901 2.42341 13.901Z" fill="#787486"/>
</svg>
