<svg width="116" height="40" viewBox="0 0 116 40" fill="none" xmlns="http://www.w3.org/2000/svg">
<rect x="0.5" y="0.5" width="115" height="39" rx="7.5" fill="white"/>
<rect x="0.5" y="0.5" width="115" height="39" rx="7.5" stroke="#D9D9D9"/>
<path d="M25.3753 20.7083V23.4166C25.3753 23.594 25.4352 23.7425 25.5548 23.8621C25.6745 23.9818 25.823 24.0416 26.0003 24.0416C26.1777 24.0416 26.3262 23.9818 26.4458 23.8621C26.5655 23.7425 26.6253 23.594 26.6253 23.4166V20.7083H29.3336C29.511 20.7083 29.6595 20.6485 29.7791 20.5288C29.8988 20.4092 29.9586 20.2607 29.9586 20.0833C29.9586 19.906 29.8988 19.7575 29.7791 19.6378C29.6595 19.5182 29.511 19.4583 29.3336 19.4583H26.6253V16.75C26.6253 16.5726 26.5655 16.4241 26.4458 16.3045C26.3262 16.1848 26.1777 16.125 26.0003 16.125C25.823 16.125 25.6745 16.1848 25.5548 16.3045C25.4352 16.4241 25.3753 16.5726 25.3753 16.75V19.4583H22.667C22.4896 19.4583 22.3411 19.5182 22.2215 19.6378C22.1018 19.7575 22.042 19.906 22.042 20.0833C22.042 20.2607 22.1018 20.4092 22.2215 20.5288C22.3411 20.6485 22.4896 20.7083 22.667 20.7083H25.3753ZM20.4234 27.1666C20.0025 27.1666 19.6462 27.0208 19.3545 26.7291C19.0628 26.4375 18.917 26.0812 18.917 25.6602V14.5064C18.917 14.0855 19.0628 13.7292 19.3545 13.4375C19.6462 13.1458 20.0025 13 20.4234 13H31.5772C31.9981 13 32.3545 13.1458 32.6461 13.4375C32.9378 13.7292 33.0836 14.0855 33.0836 14.5064V25.6602C33.0836 26.0812 32.9378 26.4375 32.6461 26.7291C32.3545 27.0208 31.9981 27.1666 31.5772 27.1666H20.4234ZM20.4234 25.9166H31.5772C31.6413 25.9166 31.7001 25.8899 31.7535 25.8365C31.8069 25.7831 31.8336 25.7243 31.8336 25.6602V14.5064C31.8336 14.4423 31.8069 14.3835 31.7535 14.3301C31.7001 14.2767 31.6413 14.25 31.5772 14.25H20.4234C20.3593 14.25 20.3005 14.2767 20.2471 14.3301C20.1937 14.3835 20.167 14.4423 20.167 14.5064V25.6602C20.167 25.7243 20.1937 25.7831 20.2471 25.8365C20.3005 25.8899 20.3593 25.9166 20.4234 25.9166Z" fill="#787486"/>
<path d="M57.3281 24.3906V25.6094H44.5156V24.3906H50.1719V21.3438H51.6406V24.3906H57.3281ZM45.1406 20.6719C48.0156 20.25 50.0859 18.625 50.1562 16.6562H45.6719V15.4531H50.1719V13.5781H51.6406V15.4531H56.1406V16.6562H51.6562C51.7266 18.625 53.7969 20.25 56.6719 20.6719L56.1094 21.8281C53.7656 21.4609 51.8125 20.3516 50.8984 18.7188C49.9922 20.3516 48.0469 21.4609 45.7031 21.8281L45.1406 20.6719ZM70.3594 13.3281V27.3281H68.9375V20.0938H67.125V26.6094H65.7656V13.6094H67.125V18.875H68.9375V13.3281H70.3594ZM58.8125 23.9688V15.0156H64.0625V16.2188H60.2969V22.7031C62.0156 22.6953 63.3125 22.6172 64.8125 22.3281L64.9219 23.5469C63.2422 23.8984 61.7891 23.9531 59.75 23.9688H58.8125ZM83.0781 13.3281V19H85.3281V20.2344H83.0781V27.3281H81.6094V13.3281H83.0781ZM72.0938 16.7344V15.5156H75.5469V13.5156H77.0312V15.5156H80.3906V16.7344H72.0938ZM72.8125 21.0156C72.8125 19.1094 74.2812 17.7656 76.2969 17.7656C78.3047 17.7656 79.7734 19.1094 79.7812 21.0156C79.7734 22.9375 78.3047 24.2734 76.2969 24.2812C74.2812 24.2734 72.8125 22.9375 72.8125 21.0156ZM74.2344 21.0156C74.2266 22.2344 75.1016 23.0469 76.2969 23.0312C77.4844 23.0469 78.3516 22.2344 78.3594 21.0156C78.3516 19.8203 77.4844 18.9922 76.2969 18.9844C75.1016 18.9922 74.2266 19.8203 74.2344 21.0156ZM97.6406 13.3281V27.3281H96.1406V13.3281H97.6406ZM86.1406 23.5781C89.8594 21.8047 91.6797 19.2812 91.9688 16.0156H86.8125V14.8281H93.4688C93.4688 18.9297 91.7266 22.4766 86.9219 24.7812L86.1406 23.5781Z" fill="#787486"/>
</svg>
